<?xml version="1.0" standalone="no"?>
<!DOCTYPE svg PUBLIC "-//W3C//DTD SVG 20010904//EN"
 "http://www.w3.org/TR/2001/REC-SVG-20010904/DTD/svg10.dtd">
<svg version="1.0" xmlns="http://www.w3.org/2000/svg"
 width="1024.000000pt" height="1536.000000pt" viewBox="0 0 1024.000000 1536.000000"
 preserveAspectRatio="xMidYMid meet">

<g transform="translate(0.000000,1536.000000) scale(0.100000,-0.100000)"
fill="#000000" stroke="none">
<path d="M0 7680 l0 -7680 5120 0 5120 0 0 7680 0 7680 -5120 0 -5120 0 0
-7680z m5665 4665 c663 -79 1276 -290 1848 -635 613 -369 1116 -880 1512
-1535 83 -136 248 -472 308 -625 231 -588 339 -1144 353 -1825 11 -482 -38
-914 -158 -1389 -135 -541 -390 -1104 -702 -1551 -372 -533 -755 -916 -1256
-1254 -671 -454 -1351 -692 -2113 -742 -210 -14 -574 -6 -757 16 -670 81
-1318 320 -1905 703 -684 445 -1243 1079 -1624 1840 -270 538 -449 1167 -511
1792 -6 58 -13 222 -17 365 -30 1257 357 2412 1106 3300 411 488 1013 936
1596 1190 434 190 925 317 1365 355 69 5 143 12 165 14 106 10 658 -3 790 -19z"/>
<path d="M4930 12280 c-607 -29 -1200 -185 -1744 -457 -490 -245 -933 -583
-1301 -993 -569 -632 -969 -1501 -1099 -2385 -106 -712 -78 -1368 86 -2030
186 -756 526 -1424 1010 -1991 394 -459 875 -837 1404 -1102 841 -421 1737
-552 2644 -386 831 152 1632 584 2263 1218 501 504 858 1066 1115 1756 215
577 328 1327 293 1953 -43 773 -193 1376 -492 1977 -220 441 -454 771 -794
1119 -264 269 -443 419 -712 595 -479 311 -998 527 -1543 641 -333 70 -765
102 -1130 85z m720 -84 c664 -84 1236 -280 1784 -610 414 -250 783 -573 1102
-966 489 -603 823 -1372 943 -2170 71 -471 80 -973 26 -1440 -160 -1382 -916
-2625 -2061 -3388 -569 -379 -1173 -598 -1859 -674 -187 -20 -706 -18 -875 5
-764 102 -1490 399 -2080 850 -987 755 -1620 1864 -1799 3152 -31 219 -43 409
-43 675 -1 986 262 1900 769 2675 188 286 451 589 718 825 733 648 1603 1010
2600 1084 116 9 666 -4 775 -18z"/>
<path d="M5214 11387 c10 -6 31 -22 45 -35 l26 -24 -25 6 c-117 28 -226 38
-360 33 -146 -5 -231 -19 -438 -72 -55 -14 -112 -25 -126 -25 -14 0 -26 -4
-26 -8 0 -13 69 -49 120 -62 l45 -13 -70 -17 c-182 -46 -259 -93 -440 -270
-114 -111 -144 -135 -216 -170 -45 -22 -90 -41 -98 -41 -48 -4 79 -18 163 -18
l99 -1 -46 -31 c-117 -77 -275 -314 -349 -524 -46 -128 -45 -130 25 -58 57 60
174 153 192 153 5 0 1 -8 -7 -17 -24 -28 -73 -131 -96 -203 -45 -142 -52 -202
-57 -455 -3 -184 -20 -366 -42 -439 -4 -16 3 -13 37 14 55 44 94 99 111 155 7
25 16 45 20 45 3 0 9 -43 13 -95 22 -316 162 -607 364 -755 63 -47 182 -116
182 -107 0 3 -11 29 -25 58 -13 30 -33 92 -44 139 -19 83 -32 220 -21 220 3 0
18 -26 33 -58 64 -131 219 -276 394 -369 43 -23 167 -78 275 -122 374 -152
497 -220 627 -345 91 -87 152 -180 186 -279 44 -131 28 -229 -42 -270 -52 -30
-88 -11 -214 109 -131 125 -199 176 -308 233 -164 85 -313 121 -506 121 -260
0 -489 -78 -739 -251 l-100 -69 61 0 c296 0 586 -63 828 -180 302 -145 543
-367 797 -733 12 -17 19 -14 103 45 302 213 528 560 565 867 34 280 -89 606
-291 770 -44 36 -55 52 -62 85 -15 81 -8 82 70 11 39 -36 81 -81 93 -101 12
-19 24 -33 27 -30 14 14 42 235 43 333 0 187 -39 320 -149 506 -75 127 -91
171 -98 271 l-6 78 24 -7 c93 -30 194 -142 220 -246 7 -27 19 -49 26 -49 28 0
271 132 307 167 l39 38 -6 -34 c-7 -33 -7 -33 16 -19 36 24 113 132 138 195
18 47 23 80 25 173 2 101 6 123 30 180 25 59 29 81 35 230 4 91 11 186 15 212
9 66 -7 86 -102 125 -43 18 -119 62 -169 98 -82 59 -219 125 -260 125 -9 0
-17 6 -19 13 -2 6 -9 30 -15 53 -25 92 -161 194 -260 194 l-46 0 0 68 c-1 154
-132 325 -328 423 -52 27 -116 46 -202 63 -27 5 -28 4 -11 -7z m-328 -606 c64
-30 213 -129 214 -142 0 -3 -48 18 -107 48 -192 95 -318 89 -374 -17 -25 -45
-24 -121 1 -202 11 -34 20 -65 19 -68 0 -14 -44 83 -65 144 -38 111 -30 180
28 232 59 54 175 56 284 5z m804 -86 c52 -26 119 -63 149 -82 l53 -34 -23 38
c-12 21 -43 62 -67 91 -27 31 -39 52 -30 52 36 0 116 -32 151 -61 31 -26 77
-93 77 -114 0 -3 -21 -5 -47 -5 -43 -1 -37 -4 62 -29 161 -42 224 -71 377
-174 164 -110 165 -107 -72 -111 l-155 -2 1 -37 c1 -21 10 -47 20 -59 25 -28
92 -58 130 -58 18 0 41 -8 52 -17 27 -23 62 -129 62 -187 0 -37 -5 -48 -33
-73 -19 -17 -61 -37 -96 -47 -35 -10 -100 -33 -144 -53 -69 -29 -97 -36 -182
-41 l-100 -5 44 -20 c65 -29 140 -24 241 14 116 43 251 52 293 19 22 -17 27
-30 27 -63 0 -48 -19 -123 -45 -182 l-18 -40 -7 30 c-8 36 -24 68 -42 83 -11
9 -13 5 -10 -24 8 -69 -62 -172 -157 -227 l-31 -18 0 35 c0 33 -24 111 -40
129 -3 4 -4 -19 -2 -52 4 -62 -17 -127 -45 -138 -20 -8 -61 33 -88 88 -38 75
-69 103 -167 155 -124 66 -207 144 -254 239 -34 68 -36 79 -32 147 4 90 31
148 102 223 28 30 51 55 50 55 -11 0 -123 -56 -210 -106 -113 -65 -180 -94
-218 -94 -73 0 -159 59 -202 139 l-25 46 6 -55 c8 -79 55 -169 118 -225 29
-27 95 -68 154 -97 160 -78 268 -189 290 -299 l6 -34 -62 58 c-71 65 -155 111
-298 162 -112 40 -187 88 -242 154 -106 127 -145 294 -106 459 30 127 90 208
244 333 74 59 79 65 64 81 -9 10 -24 20 -34 23 -11 4 -19 11 -19 17 0 7 54 9
159 7 l160 -4 -25 44 c-13 24 -24 45 -24 47 0 9 179 -60 260 -101z m620 -505
c11 -11 20 -26 20 -32 -1 -9 -5 -8 -13 2 -7 9 -23 24 -37 33 -19 13 -21 17 -7
17 9 0 26 -9 37 -20z m250 -184 c0 -67 -35 -167 -70 -201 l-30 -29 0 82 c0
111 34 192 82 192 15 0 18 -8 18 -44z"/>
<path d="M5564 10550 c-55 -11 -143 -57 -231 -119 -40 -28 -73 -53 -73 -55 0
-2 24 3 53 11 28 8 93 15 142 15 75 1 106 -5 187 -31 71 -23 128 -34 220 -41
67 -5 139 -14 158 -19 52 -15 23 4 -130 85 -71 38 -130 72 -130 75 0 3 28 10
63 16 l62 9 -84 27 c-94 31 -176 40 -237 27z m82 -84 c35 -26 -10 -31 -79 -8
l-62 20 61 1 c38 1 67 -4 80 -13z"/>
<path d="M5861 10014 c-47 -8 -86 -15 -87 -17 -2 -1 57 -2 129 -2 73 0 175 -3
227 -7 l95 -8 -55 21 c-72 27 -200 33 -309 13z"/>
<path d="M5925 9904 c-57 -15 -174 -57 -205 -75 -19 -11 -26 -17 -15 -15 241
62 295 68 445 54 l65 -7 -60 21 c-58 20 -189 32 -230 22z"/>
<path d="M5970 9803 c-34 -6 -194 -82 -188 -89 3 -3 61 13 129 35 68 22 142
45 164 50 39 9 39 9 -20 9 -33 -1 -71 -3 -85 -5z"/>
<path d="M3304 10279 c-234 -131 -423 -276 -635 -488 -163 -164 -248 -264
-346 -411 -62 -93 -163 -265 -163 -277 0 -6 22 -6 53 -2 28 4 80 8 113 8 l61
1 54 82 c204 312 524 618 845 807 l71 42 6 87 c3 48 13 112 21 142 8 30 13 56
12 57 -1 1 -42 -20 -92 -48z"/>
<path d="M6756 10160 c-3 -44 -11 -91 -16 -105 -8 -21 -6 -27 18 -42 343 -212
625 -478 843 -795 51 -74 64 -88 92 -92 67 -9 173 -27 195 -33 l24 -6 -30 59
c-142 281 -472 646 -811 897 -91 68 -289 197 -302 197 -3 0 -9 -36 -13 -80z"/>
<path d="M2960 9136 c-505 -103 -538 -111 -629 -152 -95 -43 -198 -146 -255
-253 l-39 -74 184 7 c411 14 649 18 649 13 0 -4 -14 -14 -30 -22 -23 -12 -98
-19 -308 -30 -449 -23 -537 -31 -557 -52 -18 -18 -11 -33 16 -33 15 0 19 -7
19 -37 0 -42 -25 -181 -34 -190 -3 -3 -65 -1 -139 5 -188 16 -405 -3 -630 -54
-112 -26 -110 -23 -106 -247 l4 -191 -35 -11 c-50 -14 -60 -23 -60 -51 0 -20
-4 -24 -19 -19 -36 11 -43 -12 -56 -210 l-5 -80 247 -2 c137 -2 401 0 589 3
l340 6 13 60 c7 33 34 103 61 156 27 52 47 98 45 100 -7 8 -184 31 -233 32
-24 0 -41 4 -38 9 9 14 264 22 386 12 153 -13 218 -37 287 -108 85 -87 148
-239 158 -383 l5 -65 -19 80 c-56 237 -155 350 -318 363 -53 4 -70 1 -115 -21
-90 -44 -158 -122 -203 -232 l-23 -57 -615 2 -616 1 -8 -38 c-4 -21 -8 -87 -7
-148 1 -161 19 -194 115 -210 29 -4 42 -14 64 -48 14 -24 38 -50 52 -59 29
-18 26 -20 -49 -33 -24 -4 -38 -11 -38 -20 0 -13 255 -15 1989 -15 1094 0
1998 -3 2008 -6 25 -8 -46 54 -138 121 -218 158 -488 275 -746 325 -183 35
-291 41 -697 43 l-403 2 -40 28 c-22 15 -52 41 -68 57 l-29 30 151 0 c82 0
197 3 254 6 112 7 115 6 153 -48 15 -21 15 -21 42 13 56 70 253 256 327 309
l77 54 0 314 0 315 -66 70 c-77 81 -161 206 -209 309 l-33 72 -12 -44 c-7 -25
-10 -73 -8 -107 3 -50 1 -60 -9 -51 -10 8 -13 -6 -14 -73 -1 -247 -19 -796
-29 -875 -24 -202 -28 -138 -29 436 -1 479 -4 589 -15 605 -51 73 -93 286 -82
407 6 53 4 68 -6 67 -7 0 -195 -38 -418 -83z m231 -152 c-71 -67 -151 -161
-151 -178 0 -3 12 -6 27 -6 43 0 155 -22 148 -29 -11 -10 -249 -28 -260 -19
-17 15 27 80 110 164 69 69 171 143 198 144 5 0 -28 -34 -72 -76z m-110 -364
c127 -26 200 -54 219 -82 19 -30 25 -288 15 -667 -9 -334 -1 -316 -138 -307
-181 12 -248 18 -245 21 2 2 60 8 129 14 70 6 134 13 142 17 21 8 25 61 36
459 8 308 8 333 -9 372 -24 54 -77 89 -166 108 -100 21 -117 20 -136 -12 -9
-16 -42 -93 -73 -173 -87 -220 -106 -247 -60 -85 48 166 96 304 116 329 25 32
41 32 170 6z m-423 -92 c17 -22 17 -50 -3 -155 l-20 -103 -46 0 c-59 0 -454
28 -498 36 l-34 5 7 97 c4 53 8 97 9 98 2 2 411 26 543 33 17 0 36 -5 42 -11z
m453 -77 c22 -18 24 -27 24 -113 0 -73 -4 -100 -18 -121 -17 -26 -20 -27 -110
-26 -50 1 -117 4 -147 8 l-55 7 70 12 c141 25 128 16 120 81 -15 128 47 208
116 152z m-851 -211 c491 -28 552 -37 279 -39 -119 0 -310 -4 -426 -8 l-210
-6 -27 -221 c-15 -122 -29 -223 -32 -225 -2 -2 -5 114 -6 258 l-3 261 35 0
c19 0 195 -9 390 -20z m-530 -90 c0 -5 -11 -10 -25 -10 l-25 0 0 -320 c0 -304
-1 -320 -18 -320 -17 0 -19 13 -25 143 -4 78 -7 220 -7 315 l0 172 -34 0 -33
0 5 -315 c5 -309 4 -315 -15 -315 -18 0 -21 9 -26 98 -4 53 -7 195 -7 316 l0
218 -37 -7 c-21 -4 -38 -8 -38 -8 -1 -1 4 -138 9 -305 5 -166 7 -305 4 -307
-3 -3 -13 -3 -22 1 -14 5 -16 24 -16 123 0 64 -3 200 -7 304 l-6 187 -34 0
-33 0 6 -305 c6 -271 5 -305 -8 -305 -9 0 -18 9 -21 20 -7 26 -13 352 -9 484
l3 98 -38 -7 c-21 -4 -38 -8 -39 -8 0 -1 2 -134 5 -295 l6 -292 -22 0 -23 0 0
183 c0 101 -3 232 -7 290 -5 95 -8 107 -25 107 -31 0 -20 16 20 28 44 13 150
31 212 35 113 8 330 6 330 -3z m961 -51 c29 -7 38 -15 42 -37 3 -15 4 -28 3
-29 -2 -2 -42 7 -89 19 -79 21 -87 25 -87 47 0 22 2 23 48 16 26 -3 63 -11 83
-16z m-34 -95 c60 -15 72 -21 76 -40 2 -13 3 -25 1 -27 -2 -2 -41 4 -86 13
-77 16 -83 19 -86 43 -4 32 0 33 95 11z m493 -113 c0 -115 -3 -121 -50 -121
-17 0 -19 11 -22 115 l-3 115 38 0 37 0 0 -109z m-1059 -151 l38 0 -19 -42
c-11 -24 -20 -53 -20 -65 0 -16 -6 -23 -19 -23 -10 0 -46 -3 -80 -6 l-61 -7 0
78 0 78 61 -7 c34 -3 79 -6 100 -6z m-1003 -42 c7 -7 12 -34 12 -60 0 -53 1
-52 -74 -42 l-46 7 0 53 0 54 48 0 c26 0 53 -5 60 -12z m1430 -274 c28 -20 58
-77 67 -131 8 -53 -16 -141 -47 -170 -39 -36 -70 -38 -108 -7 -43 37 -60 80
-60 151 1 125 77 207 148 157z m-464 -456 l46 -68 -123 0 c-67 0 -194 -3 -281
-7 l-159 -6 47 57 c25 31 46 61 46 66 0 6 43 10 98 11 53 1 138 4 187 8 50 3
91 6 91 6 1 0 23 -30 48 -67z m866 12 c69 -6 197 -18 285 -25 88 -8 230 -19
315 -26 349 -24 327 -27 -287 -27 -343 0 -623 0 -623 2 0 1 19 23 43 49 41 47
43 48 92 43 28 -3 106 -10 175 -16z"/>
<path d="M6565 9166 c-66 -24 -190 -72 -275 -108 -126 -53 -155 -68 -154 -84
1 -10 11 -59 23 -109 25 -107 37 -313 23 -405 -5 -36 -9 -66 -8 -67 2 -2 22 4
47 12 24 8 83 24 132 34 l87 19 0 -469 0 -468 -82 -3 -82 -3 -13 -78 c-28
-166 -110 -350 -229 -510 -35 -48 -64 -88 -64 -90 0 -1 745 -1 1656 1 1568 2
1655 3 1652 20 -2 11 -18 20 -43 26 -22 5 -42 11 -44 12 -2 2 10 15 27 29 17
14 40 41 51 59 17 27 29 34 62 39 89 12 106 61 101 295 l-2 94 -622 -8 -623
-7 -19 54 c-38 109 -117 193 -209 222 -73 23 -161 24 -215 2 -91 -37 -182
-185 -208 -340 -24 -137 -34 -121 -14 20 23 157 90 297 184 383 132 121 287
132 561 42 l90 -30 -141 4 -142 3 43 -62 c44 -65 78 -143 90 -208 l7 -37 573
0 573 0 6 31 c9 48 7 160 -4 200 -15 55 -40 71 -109 73 -33 0 -63 5 -67 9 -4
4 -10 103 -12 220 -4 227 -9 249 -57 267 -13 5 -97 21 -187 37 -173 29 -392
37 -544 20 l-71 -8 -22 85 c-22 91 -28 163 -11 136 8 -12 10 -10 10 11 0 61 0
61 -331 81 -507 30 -487 28 -511 47 -20 17 -20 18 -2 22 10 3 165 -3 344 -13
179 -10 342 -17 362 -15 l37 2 -51 80 c-63 99 -172 208 -258 258 -110 64 -191
82 -640 142 -228 30 -432 58 -453 61 l-37 7 6 -84 c5 -71 -21 -1275 -30 -1364
-1 -16 -4 216 -4 516 -2 644 -10 939 -26 938 -6 0 -65 -19 -131 -43z m458
-150 c119 -23 222 -82 278 -159 32 -44 38 -82 13 -91 -26 -10 -134 -7 -134 4
0 6 16 18 35 27 19 9 35 20 35 24 0 4 -22 27 -49 51 -53 48 -159 108 -244 138
-64 23 -36 25 66 6z m381 -388 c13 -22 96 -346 96 -378 1 -41 0 -41 376 -26
197 9 416 18 485 21 l126 7 6 -54 c4 -29 6 -125 6 -213 -2 -174 0 -178 -39 69
-11 65 -22 121 -25 124 -6 6 -880 25 -912 19 -25 -5 -23 -9 -104 207 -34 88
-67 167 -74 175 -29 30 -272 -5 -312 -45 l-23 -23 0 -440 c0 -366 2 -442 14
-454 17 -16 166 -30 216 -20 21 4 31 3 27 -4 -4 -6 -32 -13 -64 -16 -228 -24
-248 -25 -260 -15 -18 15 -18 946 0 998 11 31 18 37 62 48 52 13 270 39 342
41 34 1 45 -4 57 -21z m781 -103 l30 -2 16 -109 c9 -60 16 -110 15 -110 -1 -1
-129 -7 -285 -14 -220 -9 -285 -9 -291 0 -4 7 -20 59 -35 116 -23 86 -25 107
-15 119 12 14 45 15 274 10 144 -4 274 -8 291 -10z m-945 -63 c21 -17 24 -30
28 -126 3 -58 9 -109 14 -112 5 -3 53 -14 106 -23 l97 -18 -89 -8 c-155 -13
-234 7 -255 66 -6 18 -11 70 -11 115 0 71 3 87 20 104 25 25 61 26 90 2z
m1561 -302 c141 -11 229 -24 292 -42 40 -12 50 -28 17 -28 -19 0 -20 -6 -17
-286 l2 -287 -24 -4 -24 -3 8 293 7 294 -24 6 c-12 4 -28 7 -34 7 -8 0 -14
-89 -19 -300 -6 -259 -9 -300 -22 -300 -14 0 -15 36 -8 305 l7 305 -36 0 -36
0 0 -153 c0 -85 -3 -222 -7 -305 -5 -125 -9 -152 -21 -152 -13 0 -14 39 -10
310 l6 310 -34 0 -34 0 0 -137 c0 -76 -3 -216 -7 -310 -6 -159 -8 -173 -24
-173 -18 0 -18 14 -12 310 l6 310 -36 0 -37 0 -2 -282 c-1 -156 -2 -295 -1
-310 1 -23 -3 -28 -21 -28 l-23 0 5 320 5 320 -42 0 c-26 0 -40 4 -36 10 8 13
67 13 236 0z m-1071 -64 c0 -21 -9 -26 -92 -49 -51 -14 -94 -24 -95 -23 -2 2
0 16 3 33 5 27 11 31 77 45 102 22 107 22 107 -6z m-10 -104 c0 -28 -3 -30
-75 -45 -100 -22 -107 -22 -103 6 2 18 16 26 78 44 98 28 100 28 100 -5z
m-540 -94 c0 -122 -5 -140 -39 -136 -26 3 -26 3 -31 111 -5 113 -5 115 43 116
l27 1 0 -92z m2118 -204 c19 -6 22 -13 22 -56 l0 -49 -57 3 -58 3 -3 53 -3 52
38 0 c21 0 48 -3 61 -6z m-925 -61 c2 -32 3 -60 1 -63 -3 -6 -142 4 -148 11
-2 2 -6 25 -9 51 l-6 47 67 4 c37 2 72 4 78 5 7 1 13 -21 17 -55z m-993 -191
c0 -4 -22 -29 -49 -56 -32 -31 -62 -51 -87 -56 -21 -5 -132 -10 -246 -10
l-208 0 0 28 c0 15 9 41 20 59 l19 32 138 4 c318 7 413 7 413 -1z m532 -32
c65 -70 63 -214 -5 -281 -95 -96 -213 82 -152 228 39 94 100 114 157 53z m752
-419 c5 -9 27 -33 48 -55 21 -21 38 -39 38 -40 0 0 -118 0 -262 2 l-263 3 25
22 c14 12 38 39 53 59 l28 37 162 -6 c134 -5 164 -9 171 -22z m-978 -68 l29
-23 -655 1 c-375 1 -629 5 -595 10 33 4 187 15 343 24 295 16 555 38 707 59
l90 13 26 -31 c15 -17 40 -41 55 -53z"/>
<path d="M1683 6469 c-209 -35 -336 -170 -337 -359 -1 -98 26 -164 93 -231
102 -101 184 -119 559 -119 293 0 318 -4 347 -61 21 -40 15 -111 -11 -141 -42
-46 -59 -48 -489 -48 l-405 0 0 -120 0 -120 409 0 c236 0 431 4 462 10 130 25
238 103 288 209 23 50 26 68 26 161 -1 94 -3 110 -27 155 -51 97 -146 163
-263 184 -33 6 -188 12 -345 14 -319 3 -332 6 -363 70 -17 33 -17 42 -5 79 7
23 26 51 41 62 28 20 41 21 432 24 l404 3 3 115 c2 64 1 118 -1 120 -8 8 -767
2 -818 -7z"/>
<path d="M6532 6408 c-55 -101 -592 -1129 -592 -1134 0 -2 62 -4 138 -4 l137
0 65 125 65 125 363 0 362 0 62 -125 63 -125 151 0 152 0 -101 198 c-55 108
-194 379 -308 602 l-207 405 -155 3 -155 2 -40 -72z m311 -424 c66 -130 117
-238 114 -240 -2 -2 -115 -3 -250 -2 l-245 3 126 238 c69 130 128 237 131 237
3 -1 59 -107 124 -236z"/>
<path d="M7624 6471 c-2 -2 -4 -274 -4 -603 l0 -599 513 3 c501 4 513 4 572
26 78 29 152 86 188 143 55 89 60 222 12 323 -20 41 -79 102 -120 123 -16 9
-31 16 -33 18 -1 1 16 21 38 44 117 123 82 357 -69 452 -97 62 -101 63 -619
69 -261 3 -476 3 -478 1z m942 -265 c28 -28 34 -41 34 -78 0 -24 -7 -54 -16
-67 -34 -47 -61 -51 -394 -51 l-310 0 0 115 0 115 326 0 326 0 34 -34z m51
-452 c16 -12 34 -39 42 -64 12 -38 12 -47 -5 -88 -13 -31 -31 -53 -54 -67 -33
-19 -53 -20 -377 -23 l-343 -3 0 136 0 136 354 -3 c341 -3 356 -4 383 -24z"/>
<path d="M2820 5870 l0 -600 130 0 130 0 0 600 0 600 -130 0 -130 0 0 -600z"/>
<path d="M3260 5871 l0 -601 130 0 130 0 2 430 3 430 305 -357 c167 -197 329
-383 360 -414 72 -72 120 -89 252 -89 l98 0 0 600 0 600 -125 0 -125 0 0 -432
c-1 -355 -3 -430 -14 -416 -40 53 -580 692 -625 740 -80 85 -120 101 -268 106
l-123 4 0 -601z"/>
<path d="M4700 6350 l0 -120 275 0 275 0 -2 -480 -3 -480 128 0 127 0 0 480 0
480 275 0 275 0 0 120 0 120 -675 0 -675 0 0 -120z"/>
<path d="M5645 5066 c-153 -49 -257 -165 -286 -320 -21 -114 27 -230 118 -283
44 -26 56 -28 148 -28 115 0 159 16 240 87 l47 42 -37 34 -37 34 -31 -30
c-106 -100 -244 -97 -314 7 -34 50 -32 148 3 219 45 90 136 151 227 152 56 0
95 -18 130 -60 l26 -30 40 27 c22 16 40 34 41 42 0 25 -83 98 -125 110 -52 14
-140 13 -190 -3z"/>
<path d="M4501 4768 c-29 -167 -56 -308 -58 -315 -4 -10 34 -13 175 -13 l179
0 7 38 c3 20 6 43 6 50 0 9 -32 12 -125 12 -125 0 -125 0 -120 23 9 41 85 484
85 496 0 7 -19 11 -48 11 l-47 0 -54 -302z"/>
<path d="M4959 4755 l-55 -315 178 0 178 0 0 28 c0 15 3 37 6 49 6 22 5 22
-118 25 l-124 3 42 240 c24 132 43 250 43 263 1 20 -4 22 -46 22 l-48 0 -56
-315z"/>
<path d="M1940 4815 l0 -35 1155 0 1155 0 0 35 0 35 -1155 0 -1155 0 0 -35z"/>
<path d="M6180 4815 l0 -35 1115 0 1115 0 0 35 0 35 -1115 0 -1115 0 0 -35z"/>
</g>
</svg>
